<?xml version="1.0" encoding="UTF-8" standalone="no"?>
<svg
   xmlns:dc="http://purl.org/dc/elements/1.1/"
   xmlns:cc="http://creativecommons.org/ns#"
   xmlns:rdf="http://www.w3.org/1999/02/22-rdf-syntax-ns#"
   xmlns:svg="http://www.w3.org/2000/svg"
   xmlns="http://www.w3.org/2000/svg"
   xmlns:sodipodi="http://sodipodi.sourceforge.net/DTD/sodipodi-0.dtd"
   xmlns:inkscape="http://www.inkscape.org/namespaces/inkscape"
   height="200"
   width="200"
   version="1.1"
   id="svg71"
   sodipodi:docname="bijection.svg"
   inkscape:version="0.92.4 (5da689c313, 2019-01-14)">
  <metadata
     id="metadata75">
    <rdf:RDF>
      <cc:Work
         rdf:about="">
        <dc:format>image/svg+xml</dc:format>
        <dc:type
           rdf:resource="http://purl.org/dc/dcmitype/StillImage" />
        <dc:title>Bijection</dc:title>
      </cc:Work>
    </rdf:RDF>
  </metadata>
  <sodipodi:namedview
     pagecolor="#ffffff"
     bordercolor="#666666"
     borderopacity="1"
     objecttolerance="10"
     gridtolerance="10"
     guidetolerance="10"
     inkscape:pageopacity="0"
     inkscape:pageshadow="2"
     inkscape:window-width="1920"
     inkscape:window-height="1022"
     id="namedview73"
     showgrid="false"
     inkscape:zoom="2.36"
     inkscape:cx="41.398362"
     inkscape:cy="122.31186"
     inkscape:window-x="0"
     inkscape:window-y="0"
     inkscape:window-maximized="1"
     inkscape:current-layer="svg71" />
  <title
     id="title2">Bijection</title>
  <defs
     id="defs9">
    <style
       type="text/css"
       id="style4">.ellipse  { stroke-width: 2.0; stroke: black; fill: none; }
    .setlabel { font-size: 18pt; text-anchor: middle; }
    .xelement { font-size: 14pt; text-anchor: middle; }
    .yelement { font-size: 14pt; text-anchor: middle; }
    .map      { stroke-width: 1.0; stroke: black; fill: none; marker-end: url(#arrow); }
    .arrow    { fill: black; }</style>
    <marker
       id="arrow"
       refY="4"
       refX="3"
       orient="auto"
       markerWidth="4"
       markerHeight="8">
      <polyline
         points="0 0 4 4 0 8"
         class="arrow"
         id="polyline6" />
    </marker>
  </defs>
  <ellipse
     rx="40"
     ry="80"
     class="ellipse"
     cy="110"
     cx="50"
     id="ellipse11" />
  <text
     y="26"
     x="50"
     class="setlabel"
     id="text15">
    <tspan
       id="tspan13">X</tspan>
  </text>
  <g
     style="font-size:18.66666603px;text-anchor:middle"
     transform="translate(108.94915,0.21186441)"
     class="xelement"
     font-size="17.5px"
     id="g25">
    <text
       y="60"
       x="50"
       id="text17">1</text>
    <text
       y="95"
       x="50"
       id="text19">2</text>
    <text
       y="130"
       x="50"
       id="text21">3</text>
    <text
       y="165"
       x="50"
       id="text23">4</text>
  </g>
  <ellipse
     rx="40"
     ry="80"
     class="ellipse"
     cy="110"
     cx="150"
     id="ellipse27" />
  <text
     y="26"
     x="150"
     class="setlabel"
     id="text29">Y</text>
  <g
     style="font-size:18.66666603px;text-anchor:middle"
     transform="translate(-111.91525,0.21186441)"
     class="yelement"
     font-size="17.5px"
     id="g39">
    <text
       y="60"
       x="150"
       id="text31">D</text>
    <text
       y="95"
       x="150"
       id="text33">B</text>
    <text
       y="130"
       x="150"
       id="text35">C</text>
    <text
       y="165"
       x="150"
       id="text37">A</text>
  </g>
  <g
     stroke="#000"
     id="g49">
    <line
       y2="53"
       marker-end="url(#arrow)"
       x2="142"
       y1="53"
       x1="57"
       id="line41" />
    <line
       y2="88"
       marker-end="url(#arrow)"
       x2="142"
       y1="88"
       x1="57"
       id="line43" />
    <line
       y2="123"
       marker-end="url(#arrow)"
       x2="142"
       y1="123"
       x1="57"
       id="line45" />
    <line
       y2="158"
       marker-end="url(#arrow)"
       x2="142"
       y1="158"
       x1="57"
       id="line47" />
  </g>
  <g
     stroke-width="0"
     id="g59">
    <path
       d="m63.81 58.24a8.137 8.137 0 1 1 -16.27 0 8.137 8.137 0 1 1 16.27 0z"
       transform="matrix(.1579 0 0 .1579 43.32 43.77)"
       id="path51" />
    <path
       d="m63.81 58.24a8.137 8.137 0 1 1 -16.27 0 8.137 8.137 0 1 1 16.27 0z"
       transform="matrix(.1579 0 0 .1579 43.32 79.04)"
       id="path53" />
    <path
       d="m63.81 58.24a8.137 8.137 0 1 1 -16.27 0 8.137 8.137 0 1 1 16.27 0z"
       transform="matrix(.1579 0 0 .1579 43.32 114.1)"
       id="path55" />
    <path
       d="m63.81 58.24a8.137 8.137 0 1 1 -16.27 0 8.137 8.137 0 1 1 16.27 0z"
       transform="matrix(.1579 0 0 .1579 43.32 149.3)"
       id="path57" />
  </g>
  <g
     transform="translate(95.7 .03212)"
     stroke-width="0"
     id="g69">
    <path
       d="m63.81 58.24a8.137 8.137 0 0 1 -8.137 8.137 8.137 8.137 0 0 1 -8.137 -8.137 8.137 8.137 0 0 1 8.137 -8.137 8.137 8.137 0 0 1 8.137 8.137z"
       transform="matrix(.1579 0 0 .1579 43.32 43.77)"
       id="path61" />
    <path
       d="m63.81 58.24a8.137 8.137 0 0 1 -8.137 8.137 8.137 8.137 0 0 1 -8.137 -8.137 8.137 8.137 0 0 1 8.137 -8.137 8.137 8.137 0 0 1 8.137 8.137z"
       transform="matrix(.1579 0 0 .1579 43.32 79.04)"
       id="path63" />
    <path
       d="m63.81 58.24a8.137 8.137 0 0 1 -8.137 8.137 8.137 8.137 0 0 1 -8.137 -8.137 8.137 8.137 0 0 1 8.137 -8.137 8.137 8.137 0 0 1 8.137 8.137z"
       transform="matrix(.1579 0 0 .1579 43.32 114.1)"
       id="path65" />
    <path
       d="m63.81 58.24a8.137 8.137 0 0 1 -8.137 8.137 8.137 8.137 0 0 1 -8.137 -8.137 8.137 8.137 0 0 1 8.137 -8.137 8.137 8.137 0 0 1 8.137 8.137z"
       transform="matrix(.1579 0 0 .1579 43.32 149.3)"
       id="path67" />
  </g>
</svg>
